<svg xmlns="http://www.w3.org/2000/svg" width="32.612" height="21.75" viewBox="0 0 32.612 21.75">
  <path id="Icon_ion-ios-arrow-round-forward" data-name="Icon ion-ios-arrow-round-forward" d="M28.672,11.668a1.48,1.48,0,0,0-.011,2.084l6.887,6.9H9.336a1.473,1.473,0,0,0,0,2.945h26.2l-6.887,6.9a1.491,1.491,0,0,0,.011,2.084,1.467,1.467,0,0,0,2.073-.011l9.334-9.4a1.654,1.654,0,0,0,.306-.464,1.405,1.405,0,0,0,.113-.566,1.476,1.476,0,0,0-.419-1.031l-9.334-9.4a1.443,1.443,0,0,0-2.062-.034Z" transform="translate(-7.875 -11.251)" fill="#fff"/>
</svg>
