<svg xmlns="http://www.w3.org/2000/svg" width="51.5" height="51.5" viewBox="0 0 51.5 51.5">
  <path id="Icon_corebrands-instagram" data-name="Icon corebrands-instagram" d="M25.752,0c-7,0-7.872.034-10.612.15a19.119,19.119,0,0,0-6.253,1.2,12.63,12.63,0,0,0-4.56,2.976,12.485,12.485,0,0,0-2.976,4.56,19.119,19.119,0,0,0-1.2,6.253C.028,17.879,0,18.75,0,25.75s.034,7.872.15,10.612a19.164,19.164,0,0,0,1.2,6.253,12.63,12.63,0,0,0,2.976,4.56,12.485,12.485,0,0,0,4.56,2.976,19.379,19.379,0,0,0,6.253,1.2c2.741.124,3.612.15,10.612.15s7.872-.034,10.612-.15a19.423,19.423,0,0,0,6.253-1.2,12.63,12.63,0,0,0,4.56-2.976,12.419,12.419,0,0,0,2.976-4.56,19.379,19.379,0,0,0,1.2-6.253c.124-2.741.15-3.612.15-10.612s-.034-7.872-.15-10.612a19.367,19.367,0,0,0-1.2-6.253,12.63,12.63,0,0,0-2.976-4.56,12.419,12.419,0,0,0-4.56-2.976A19.164,19.164,0,0,0,36.364.15C33.623.026,32.752,0,25.752,0Zm0,4.636c6.874,0,7.7.034,10.412.15a14.25,14.25,0,0,1,4.777.89A8.03,8.03,0,0,1,43.91,7.6a7.937,7.937,0,0,1,1.919,2.96,14.25,14.25,0,0,1,.89,4.777c.116,2.717.15,3.539.15,10.412s-.034,7.7-.159,10.412a14.651,14.651,0,0,1-.906,4.777,8.373,8.373,0,0,1-1.93,2.968A8.125,8.125,0,0,1,40.9,45.828a14.26,14.26,0,0,1-4.795.89c-2.731.116-3.536.15-10.428.15s-7.7-.034-10.43-.159a14.79,14.79,0,0,1-4.795-.906,8.079,8.079,0,0,1-2.96-1.93A7.733,7.733,0,0,1,5.57,40.9a14.4,14.4,0,0,1-.906-4.795c-.092-2.7-.135-3.536-.135-10.4s.043-7.7.135-10.428A14.417,14.417,0,0,1,5.57,10.49,7.563,7.563,0,0,1,7.5,7.522a7.68,7.68,0,0,1,2.96-1.93,14.351,14.351,0,0,1,4.771-.9c2.731-.1,3.536-.134,10.419-.134Zm0,7.9A13.219,13.219,0,1,0,38.971,25.753,13.215,13.215,0,0,0,25.752,12.534Zm0,21.8a8.584,8.584,0,1,1,8.584-8.584,8.578,8.578,0,0,1-8.584,8.584ZM42.595,12.006A3.092,3.092,0,1,1,39.5,8.92,3.1,3.1,0,0,1,42.595,12.006Z" transform="translate(-0.002)"/>
</svg>
